<svg width="20" height="20" viewBox="0 0 20 20" fill="none" xmlns="http://www.w3.org/2000/svg">
<path d="M20 10C20 15.5228 15.5228 20 10 20C4.47715 20 0 15.5228 0 10C0 4.47715 4.47715 0 10 0C15.5228 0 20 4.47715 20 10Z" fill="#FF8946"/>
<path fill-rule="evenodd" clip-rule="evenodd" d="M15.0234 5.69723C15.2187 5.89249 15.2187 6.20907 15.0234 6.40433L6.53812 14.8896C6.34286 15.0849 6.02627 15.0849 5.83101 14.8896C5.63575 14.6944 5.63575 14.3778 5.83101 14.1825L14.3163 5.69723C14.5116 5.50197 14.8281 5.50197 15.0234 5.69723Z" fill="white"/>
<path fill-rule="evenodd" clip-rule="evenodd" d="M5.9766 5.69723C5.78134 5.89249 5.78134 6.20907 5.9766 6.40433L14.4619 14.8896C14.6571 15.0849 14.9737 15.0849 15.169 14.8896C15.3643 14.6944 15.3643 14.3778 15.169 14.1825L6.68371 5.69723C6.48844 5.50197 6.17186 5.50197 5.9766 5.69723Z" fill="white"/>
</svg>
