<svg width="20" height="20" viewBox="0 0 20 20" fill="none" xmlns="http://www.w3.org/2000/svg">
<path d="M19.0476 9.52381C19.0476 14.7837 14.7837 19.0476 9.52381 19.0476C4.26395 19.0476 0 14.7837 0 9.52381C0 4.26395 4.26395 0 9.52381 0C14.7837 0 19.0476 4.26395 19.0476 9.52381Z" fill="#469BFF"/>
<path fill-rule="evenodd" clip-rule="evenodd" d="M15.121 6.31864C15.3132 6.51693 15.3082 6.83347 15.11 7.02566L8.5504 13.3834L4.39347 8.85073C4.20682 8.64722 4.2205 8.33093 4.42402 8.14428C4.62753 7.95764 4.94382 7.97131 5.13046 8.17483L8.59258 11.9499L14.414 6.30759C14.6123 6.1154 14.9288 6.12035 15.121 6.31864Z" fill="white"/>
</svg>
