<svg width="20" height="20" viewBox="0 0 20 20" fill="none" xmlns="http://www.w3.org/2000/svg">
<path d="M20 10C20 15.5228 15.5228 20 10 20C4.47715 20 0 15.5228 0 10C0 4.47715 4.47715 0 10 0C15.5228 0 20 4.47715 20 10Z" fill="#DCDCDC"/>
<path fill-rule="evenodd" clip-rule="evenodd" d="M14.4348 5.93209C14.63 6.12735 14.63 6.44394 14.4348 6.6392L5.94949 15.1245C5.75423 15.3197 5.43765 15.3197 5.24239 15.1245C5.04713 14.9292 5.04713 14.6126 5.24239 14.4174L13.7277 5.93209C13.9229 5.73683 14.2395 5.73683 14.4348 5.93209Z" fill="#6C6C6C"/>
<path fill-rule="evenodd" clip-rule="evenodd" d="M5.77201 5.64645C5.57675 5.84171 5.57675 6.15829 5.77201 6.35355L14.2573 14.8388C14.4526 15.0341 14.7691 15.0341 14.9644 14.8388C15.1597 14.6436 15.1597 14.327 14.9644 14.1317L6.47912 5.64645C6.28386 5.45118 5.96727 5.45118 5.77201 5.64645Z" fill="#6C6C6C"/>
</svg>
