<svg width="20" height="16" viewBox="0 0 20 16" fill="none" xmlns="http://www.w3.org/2000/svg">
<path d="M4 16L5.5 12.25C5.65 11.8667 5.89167 11.5623 6.225 11.337C6.55833 11.1117 6.93333 10.9993 7.35 11H9V6.975C6.45 6.89167 4.31233 6.51667 2.587 5.85C0.861667 5.18333 -0.00066628 4.4 3.8625e-07 3.5C3.8625e-07 2.53333 0.975001 1.70833 2.925 1.025C4.875 0.341667 7.23333 0 10 0C12.7833 0 15.146 0.341667 17.088 1.025C19.03 1.70833 20.0007 2.53333 20 3.5C20 4.4 19.1373 5.18333 17.412 5.85C15.6867 6.51667 13.5493 6.89167 11 6.975V11H12.65C13.05 11 13.421 11.1127 13.763 11.338C14.105 11.5633 14.3507 11.8673 14.5 12.25L16 16H14L12.8 13H7.2L6 16H4ZM10 5C11.6167 5 13.1417 4.85833 14.575 4.575C16.0083 4.29167 17.0583 3.93333 17.725 3.5C17.0583 3.06667 16.0083 2.70833 14.575 2.425C13.1417 2.14167 11.6167 2 10 2C8.38333 2 6.85833 2.14167 5.425 2.425C3.99167 2.70833 2.94167 3.06667 2.275 3.5C2.94167 3.93333 3.99167 4.29167 5.425 4.575C6.85833 4.85833 8.38333 5 10 5Z" fill="#469BFF"/>
</svg>
